Coordinates
version=1
nRows=13
nColumns=22
inDegrees=yes

Units are S.I. units (second, meters, Newtons, ...)
If the header above contains a line with 'inDegrees', this indicates whether rotational values are in degrees (yes) or radians (no).

endheader
time	pelvis_tilt	pelvis_list	pelvis_rotation	pelvis_tx	pelvis_ty	pelvis_tz	hip_flexion_r	hip_adduction_r	hip_rotation_r	knee_angle_r	ankle_angle_r	subtalar_angle_r	hip_flexion_l	hip_adduction_l	hip_rotation_l	knee_angle_l	ankle_angle_l	subtalar_angle_l	lumbar_extension	lumbar_bending	lumbar_rotation
      0.01000000	      0.24633460	      2.21463042	     -1.19093270	     -0.81310673	      0.90476319	     -0.24641526	     -5.55095144	     -2.09738999	     -9.61100923	     -4.77720497	     18.65698191	     -3.40991702	     -0.26495982	     -0.23295550	    -12.62622436	    -11.86851055	     15.43904284	     -0.87733065	     -4.00005198	     -4.27437200	      3.32648823
      0.02000000	      0.24648161	      2.21478271	     -1.18725737	     -0.81309380	      0.90476252	     -0.24641455	     -5.55239010	     -2.09743424	     -9.60892027	     -4.77850851	     18.65952793	     -3.40982039	     -0.26624647	     -0.23342212	    -12.62566566	    -11.86753924	     15.43955677	     -0.87678895	     -3.99715132	     -4.27298246	      3.32816990
      0.03000000	      0.24634819	      2.21527168	     -1.18335371	     -0.81308481	      0.90476177	     -0.24641556	     -5.55307250	     -2.09759517	     -9.60774366	     -4.77926932	     18.66198008	     -3.40977051	     -0.26692735	     -0.23329928	    -12.62518870	    -11.86613881	     15.44011881	     -0.87615433	     -3.99463838	     -4.27191115	      3.32996334
      0.04000000	      0.24652730	      2.21599996	     -1.18278979	     -0.81308327	      0.90476128	     -0.24640729	     -5.55291576	     -2.09756549	     -9.60768013	     -4.77928496	     18.66216049	     -3.40976659	     -0.26708768	     -0.23346284	    -12.62515473	    -11.86605972	     15.44016308	     -0.87610095	     -3.99431958	     -4.27160929	      3.33015078
      0.05000000	      0.24659936	      2.21735762	     -1.17408576	     -0.81306701	      0.90475968	     -0.24642616	     -5.55422317	     -2.09934652	     -9.60687705	     -4.78168303	     18.66397768	     -3.40969328	     -0.26805001	     -0.23193691	    -12.62553472	    -11.86505895	     15.44059585	     -0.87555118	     -3.98986231	     -4.26970529	      3.33280712
      0.06000000	      0.24579394	      2.21934164	     -1.16667631	     -0.81305946	      0.90475593	     -0.24643943	     -5.55411197	     -2.10107528	     -9.60771157	     -4.78340499	     18.66663269	     -3.40958975	     -0.26757473	     -0.22976235	    -12.62534867	    -11.86335402	     15.44118085	     -0.87475765	     -3.98652702	     -4.26883649	      3.33543065
      0.07000000	      0.24429501	      2.22209195	     -1.15876633	     -0.81305284	      0.90475035	     -0.24645783	     -5.55313332	     -2.10419211	     -9.61013512	     -4.78535243	     18.67026380	     -3.40943108	     -0.26613457	     -0.22659498	    -12.62447064	    -11.86171574	     15.44188802	     -0.87367653	     -3.98285643	     -4.26832236	      3.33861499
      0.08000000	      0.24193319	      2.22586224	     -1.15003946	     -0.81304924	      0.90474285	     -0.24648006	     -5.55100724	     -2.10856163	     -9.61449470	     -4.78757502	     18.67505039	     -3.40918934	     -0.26334282	     -0.22199847	    -12.62261092	    -11.86046479	     15.44269138	     -0.87227968	     -3.97910668	     -4.26867388	      3.34263588
      0.09000000	      0.22579537	      2.24483121	     -1.13761337	     -0.81304615	      0.90471131	     -0.24650107	     -5.52901231	     -2.12930310	     -9.65219501	     -4.79771705	     18.70600541	     -3.40735485	     -0.24292041	     -0.20060862	    -12.59948349	    -11.86303229	     15.44529628	     -0.86347062	     -3.95919849	     -4.29275919	      3.35279703
      0.10000000	      0.22538429	      2.24597184	     -1.13028583	     -0.81304103	      0.90470660	     -0.24652989	     -5.52869706	     -2.13209678	     -9.65086590	     -4.80080612	     18.70657574	     -3.40709772	     -0.24234394	     -0.19861316	    -12.60028258	    -11.86221239	     15.44473822	     -0.86324881	     -3.95803206	     -4.28803147	      3.35264115
      0.11000000	      0.22425844	      2.24758535	     -1.12249571	     -0.81303952	      0.90470223	     -0.24655769	     -5.52779661	     -2.13452026	     -9.65081302	     -4.80315358	     18.70767822	     -3.40681682	     -0.24073501	     -0.19615175	    -12.60048165	    -11.86164994	     15.44419137	     -0.86288882	     -3.95764873	     -4.28536269	      3.35338457
      0.12000000	      0.22316375	      2.24969826	     -1.11466286	     -0.81303573	      0.90469721	     -0.24658389	     -5.52772409	     -2.13750283	     -9.65162266	     -4.80477758	     18.70888210	     -3.40661515	     -0.23870978	     -0.19337451	    -12.60031400	    -11.86152943	     15.44379796	     -0.86248626	     -3.95702136	     -4.28319192	      3.35516998
      0.13000000	      0.22194986	      2.25205111	     -1.10645515	     -0.81303097	      0.90469289	     -0.24661327	     -5.52756804	     -2.14114225	     -9.65341633	     -4.80550967	     18.71029496	     -3.40646158	     -0.23657865	     -0.19034809	    -12.59971393	    -11.86181361	     15.44344417	     -0.86200351	     -3.95640809	     -4.28176990	      3.35754270
